HIERARCHY
ROOT Hips
{
  OFFSET 13.6774 106.653 -34.4427
  CHANNELS 6 Xposition Yposition Zposition Zrotation Xrotation Yrotation
  JOINT ToSpine
  {
    OFFSET -2.69724 7.43032 -0.144315
    CHANNELS 3 Zrotation Xrotation Yrotation
    JOINT Spine
    {
      OFFSET -0.0310711 10.7595 1.96963
      CHANNELS 3 Zrotation Xrotation Yrotation
      JOINT Spine1
      {
        OFFSET 19.9056 3.91189 0.764692
        CHANNELS 3 Zrotation Xrotation Yrotation
        JOINT Neck
        {
          OFFSET 25.9749 7.03908 -0.130764
          CHANNELS 3 Zrotation Xrotation Yrotation
          JOINT Head
          {
            OFFSET 9.52751 0.295786 -0.907742
            CHANNELS 3 Zrotation Xrotation Yrotation
            End Site
            {
              OFFSET 16.4037 0.713936 2.7358
            }
          }
        }
        JOINT LeftShoulder
        {
          OFFSET 17.7449 4.33886 11.7777
          CHANNELS 3 Zrotation Xrotation Yrotation
          JOINT LeftArm
          {
            OFFSET 0.911315 1.27913 9.80584
            CHANNELS 3 Zrotation Xrotation Yrotation
            JOINT LeftForeArm
            {
              OFFSET 28.6126 1.18197 -3.53199
              CHANNELS 3 Zrotation Xrotation Yrotation
              JOINT LeftHand
              {
                OFFSET 27.5088 0.0218783 0.327423
                CHANNELS 3 Zrotation Xrotation Yrotation
                End Site
                {
                  OFFSET 18.6038 -0.000155887 0.382096
                }
              }
            }
          }
        }
        JOINT RightShoulder
        {
          OFFSET 17.1009 2.89543 -12.2328
          CHANNELS 3 Zrotation Xrotation Yrotation
          JOINT RightArm
          {
            OFFSET 1.4228 0.178766 -10.211
            CHANNELS 3 Zrotation Xrotation Yrotation
            JOINT RightForeArm
            {
              OFFSET 28.733 1.87905 2.64907
              CHANNELS 3 Zrotation Xrotation Yrotation
              JOINT RightHand
              {
                OFFSET 27.4588 0.290562 -0.101845
                CHANNELS 3 Zrotation Xrotation Yrotation
                End Site
                {
                  OFFSET 17.8396 -0.255518 -0.000602873
                }
              }
            }
          }
        }
      }
    }
  }
  JOINT LeftUpLeg
  {
    OFFSET -5.61296 -2.22332 -10.2353
    CHANNELS 3 Zrotation Xrotation Yrotation
    JOINT LeftLeg
    {
      OFFSET 2.56703 -44.7417 -7.93097
      CHANNELS 3 Zrotation Xrotation Yrotation
      JOINT LeftFoot
      {
        OFFSET 3.16933 -46.5642 -3.96578
        CHANNELS 3 Zrotation Xrotation Yrotation
        JOINT LeftToeBase
        {
          OFFSET 0.346054 -6.02161 12.8035
          CHANNELS 3 Zrotation Xrotation Yrotation
          End Site
          {
            OFFSET 0.134235 -1.35082 5.13018
          }
        }
      }
    }
  }
  JOINT RightUpLeg
  {
    OFFSET -5.7928 -1.72406 10.6446
    CHANNELS 3 Zrotation Xrotation Yrotation
    JOINT RightLeg
    {
      OFFSET -2.57161 -44.7178 -7.85259
      CHANNELS 3 Zrotation Xrotation Yrotation
      JOINT RightFoot
      {
        OFFSET -3.10148 -46.5936 -4.03391
        CHANNELS 3 Zrotation Xrotation Yrotation
        JOINT RightToeBase
        {
          OFFSET -0.0828122 -6.13587 12.8035
          CHANNELS 3 Zrotation Xrotation Yrotation
          End Site
          {
            OFFSET -0.131328 -1.35082 5.13018
          }
        }
      }
    }
  }
}
MOTION
Frames: 14
Frame Time: 0.03333333333333333
0.0000 93.1000 0.0000 76.0713 -1.9015 1.5669 -70.9907 -0.0622 87.3421 79.2118 69.2606 4.1916 2.4585 17.7284 3.5006 -116.2751 30.8421 159.3324 -179.3455 74.8498 -149.1047 -1.1204 -19.3481 -31.6311 -51.5653 25.5172 -138.7121 32.0930 -5.7916 -97.9185 -0.1953 0.3574 -0.2503 -2.8233 5.9523 51.0539 -116.9127 -5.8525 103.1433 21.0454 -15.7608 56.5309 0.2814 -0.1087 -0.2380 -58.5049 17.2205 96.1267 -3.3213 48.2374 -2.9692 -0.0234 -22.7026 -2.3649 1.9693 -8.6091 12.4274 -36.1502 -11.9632 72.5064 1.5580 44.5226 0.4549 -21.5617 4.6534 3.1472 1.7961 -23.0529 -4.7316 
0.0000 93.1000 0.0000 75.4731 -1.1968 2.3090 -71.0457 -0.1468 87.3040 81.4060 68.3023 2.0607 2.7794 16.9646 2.6585 -115.2115 30.3655 157.9702 -177.3408 74.8290 -148.8120 -1.6082 -20.2547 -32.3194 -52.4968 27.1506 -139.7426 32.5534 -4.9567 -97.0369 -0.0924 -0.1014 0.0695 -2.7827 6.1467 52.0329 -117.1927 -4.6514 107.1677 17.8000 -15.9005 50.7684 -0.0336 0.4840 -0.0038 -58.0385 18.3012 98.0677 -4.6994 48.0137 -3.4307 0.3276 -20.8195 -2.1273 2.6232 -10.1777 11.9775 -36.1357 -12.6984 71.6225 1.9379 45.2745 4.1251 -19.4832 4.0721 2.3816 2.3160 -20.4691 -11.1074 
0.0000 93.1000 0.0000 75.4183 -1.1878 1.9183 -71.0540 -0.0936 87.3893 80.2525 68.1717 1.9623 2.7706 16.5471 3.5754 -115.0789 30.4430 157.8933 -175.5177 74.8649 -147.4515 -1.6788 -20.6195 -32.3742 -53.5194 27.0934 -139.9749 32.1368 -4.8588 -97.0261 -0.0143 0.0290 -0.0867 -2.9193 6.4337 52.3824 -116.6019 -3.1244 109.5687 12.1772 -12.3997 48.8608 -0.0417 0.4249 -0.1831 -58.2812 18.9763 99.9431 -4.0729 46.0185 -4.7083 -0.7355 -20.1394 -1.9392 2.6344 -10.1648 9.1575 -36.8897 -14.0115 69.8356 2.1634 44.6030 1.1574 -21.4375 3.4411 2.9140 1.9954 -21.1583 -4.3337 
0.0000 93.1000 0.0000 75.2885 -0.6204 0.9008 -70.9410 -0.1654 87.3518 81.4603 68.3451 1.1499 2.1624 16.9046 3.6724 -116.2935 30.6977 159.8397 -177.7905 75.2155 -145.7355 -1.5921 -20.1052 -32.0277 -53.6632 26.0469 -140.7370 32.0136 -4.8969 -96.9696 -0.0213 -0.0156 -0.0832 -3.0307 6.9351 52.1523 -118.8959 -3.5757 111.1673 16.0375 -15.1889 49.4336 -0.1049 -0.0288 -0.3463 -59.1513 18.3655 100.1940 -3.1090 44.4403 -4.9840 -1.5359 -21.5825 -2.0468 2.2710 -8.1739 8.2005 -35.9873 -14.3587 69.2427 1.8409 44.2373 2.6935 -20.8448 3.7424 2.9583 2.0644 -22.1133 -7.5734 
0.0000 93.1000 0.0000 74.3161 0.0544 0.5109 -70.8054 -0.1247 87.3916 81.3527 68.0840 1.8071 1.9730 16.9224 2.9395 -118.1373 30.9416 160.2653 -178.8238 75.1848 -147.4200 -1.5125 -19.3237 -31.1062 -54.6664 25.9143 -141.6898 31.7074 -5.0679 -97.0275 -0.0782 -0.0736 -0.1337 -3.2497 6.9593 53.3994 -120.0871 -3.6271 112.0605 17.6562 -15.4804 51.2420 -0.0412 -0.0024 -0.1251 -59.2347 18.1649 99.5565 -2.7489 43.8738 -6.2579 -1.8377 -21.5548 -2.0163 2.5486 -9.3831 8.0692 -34.8971 -13.9873 70.0919 2.3891 45.1831 3.6023 -21.0544 3.2712 3.0500 1.7418 -22.0924 -7.9561 
0.0000 93.1000 0.0000 74.3821 0.1763 0.9424 -70.8241 0.0429 87.4439 81.3441 67.7556 1.8912 2.2390 16.9357 2.1353 -118.0961 30.3163 158.1769 -174.8100 74.9710 -151.9481 -1.0370 -19.0158 -29.4678 -54.7353 25.9861 -142.7581 30.4038 -4.9038 -96.8839 -0.0051 0.1084 -0.2385 -3.0546 6.7256 53.2200 -121.2899 -3.8803 113.2267 17.8263 -14.9650 51.4543 0.2708 -0.1931 -0.3167 -59.3405 17.2675 99.1960 -2.5543 42.9386 -6.1861 -2.0761 -21.0761 -2.2238 2.7487 -10.1931 8.9090 -34.9666 -14.1056 70.3927 2.1062 44.2342 3.5920 -21.1292 3.8846 3.1901 2.0728 -22.3032 -9.9699 
0.0000 93.1000 0.0000 74.2422 1.1147 0.9507 -70.9082 -0.3350 87.3865 82.3457 67.9139 1.2253 1.8357 16.9198 1.8270 -119.0363 30.3801 157.1205 -173.0196 75.2855 -153.8229 -1.5500 -18.7764 -28.4194 -54.7795 26.3281 -143.6809 31.6006 -4.2669 -96.3687 0.0038 -0.4294 0.1789 -3.3692 6.8124 52.4835 -122.2401 -5.6985 113.4390 17.8657 -14.5874 51.4463 -0.1293 0.3338 -0.2511 -59.2448 17.0497 99.2497 -2.5879 42.0366 -5.3099 -2.4490 -20.7639 -1.9792 2.7791 -10.0609 7.1378 -34.9333 -14.9101 70.1758 1.7834 44.2061 3.0409 -21.0055 3.3882 2.8125 1.7375 -22.2791 -7.6057 
0.0000 93.1000 0.0000 74.4071 1.3943 1.8452 -70.9469 -0.1913 87.5876 82.3735 68.2965 1.9717 1.6855 17.0387 1.1625 -119.2007 31.0793 157.3674 -173.0629 75.3569 -153.4945 -1.4499 -19.0702 -28.1877 -54.7748 27.0144 -143.6737 31.2029 -3.8052 -96.2519 -0.0495 -0.1873 0.1074 -3.0952 6.8871 52.2940 -122.9726 -5.8756 113.1406 16.6995 -13.8278 52.1844 -0.0942 0.3469 0.1695 -59.0592 17.2303 99.3317 -2.6195 41.8740 -5.3333 -2.9094 -21.4419 -2.3194 2.5066 -8.4828 4.4986 -36.1063 -15.1658 70.1065 1.5698 43.4638 3.0107 -20.9598 4.0498 2.9759 2.0729 -22.1990 -6.0908 
0.0000 93.1000 0.0000 74.2299 1.0923 1.5832 -70.9239 -0.3292 87.5039 82.3339 68.1437 1.1016 1.8657 17.1241 1.6031 -121.2243 31.8581 157.9554 -172.9248 75.6139 -154.4018 -1.4544 -18.9624 -28.2124 -54.9902 26.9640 -143.7102 31.0078 -3.9682 -96.1153 -0.0355 -0.1983 -0.1239 -3.3061 6.8644 51.4822 -123.5595 -7.0007 113.1845 15.7996 -13.5628 52.2918 -0.0530 -0.0359 -0.0859 -59.1420 17.0369 99.3341 -2.8937 41.8709 -6.3611 -3.1219 -20.9029 -2.1194 2.7059 -9.4081 6.8842 -36.1223 -16.0495 69.4060 1.9143 43.3411 3.8992 -20.5692 3.9334 3.1792 1.8194 -21.6541 -6.1690 
0.0000 93.1000 0.0000 74.3696 1.0042 1.1421 -70.7939 0.3981 87.5036 82.1900 68.4518 0.8897 2.0686 17.1720 2.3480 -121.9867 31.9540 158.0025 -173.2131 76.1157 -155.6153 -1.0946 -18.9690 -28.3992 -54.8788 26.9704 -143.7479 30.8955 -3.9865 -96.3972 -0.0620 0.1119 -0.1804 -2.6662 6.8213 50.4489 -124.0868 -7.8595 113.0092 16.6000 -13.8932 53.0597 0.1104 0.0104 0.0617 -59.0502 17.1322 99.3732 -2.9816 42.1026 -6.8744 -3.6542 -20.8937 -2.3750 3.0659 -9.8078 7.0350 -36.1081 -15.9903 69.0368 1.6271 43.4631 4.0928 -21.0275 4.2384 3.2210 2.1404 -22.4157 -6.3868 
0.0000 93.1000 0.0000 75.0251 0.3538 1.0706 -70.7075 0.1601 87.4606 81.1864 69.2016 1.0208 2.2396 17.8919 2.9906 -122.1395 32.2789 157.2435 -171.1301 76.1129 -156.3627 -1.0991 -19.2563 -29.2519 -55.1148 26.9934 -142.8157 30.8413 -3.8343 -96.3595 -0.0710 0.1182 -0.0753 -2.8008 6.7868 49.2846 -124.1865 -8.7388 112.0365 17.7326 -13.8871 54.3246 0.1835 -0.0931 -0.0768 -59.9730 16.1022 99.4455 -2.8203 42.1298 -6.7315 -3.9820 -19.8881 -2.1977 3.9751 -11.1487 5.9950 -36.0225 -15.9205 69.1497 2.1619 43.5819 3.5124 -21.1146 3.9700 3.1431 2.0393 -21.9935 -6.1327 
0.0000 93.1000 0.0000 75.4057 0.0924 -0.0985 -70.7588 0.2034 87.4714 81.2529 69.3939 1.8108 3.1017 17.8999 3.2674 -124.0429 32.9243 157.3994 -171.8950 76.3512 -154.5496 -0.5494 -19.8050 -29.4262 -55.8180 27.1245 -142.8211 31.0880 -3.8908 -96.1301 0.0604 0.5050 -0.3520 -2.6808 7.0079 48.2060 -124.3325 -8.9340 110.8209 17.6442 -13.7582 54.9526 0.1944 -0.5085 -0.2653 -59.3948 15.9111 99.9407 -3.3907 42.9282 -4.5070 -3.8086 -19.7034 -2.2363 4.5419 -11.7750 3.7948 -36.0643 -15.9426 70.4072 2.1421 43.4043 4.2208 -20.6780 4.1319 3.2460 1.9381 -22.5174 -7.1558 
0.0000 93.1000 0.0000 75.4557 0.0873 -0.2502 -70.9346 -0.1643 87.3221 80.3433 69.2550 1.8359 3.1816 18.0875 3.7173 -124.1940 33.3465 158.7247 -174.7124 76.3839 -150.6859 -1.0585 -19.9643 -30.1026 -55.7707 27.0312 -141.7816 31.0057 -4.2904 -96.1478 0.0269 0.0111 -0.0884 -3.0011 7.0532 48.1990 -124.2387 -9.1717 111.0933 17.9186 -13.0611 55.3322 -0.1982 -0.1209 -0.1726 -60.1063 15.9412 100.3096 -3.7509 42.8677 -5.3591 -3.3198 -19.3323 -1.9011 5.4333 -14.6270 5.8280 -36.0905 -15.9052 70.2634 2.3397 43.5968 3.5623 -21.1636 4.8520 2.9281 2.1971 -22.1977 -7.3285 
0.0000 93.1000 0.0000 75.4327 0.2036 -0.3570 -70.9559 0.0050 87.3487 79.3904 69.2542 3.0527 3.9104 18.0934 3.8131 -125.0000 33.8181 159.4721 -173.9861 76.9416 -151.2627 -0.9989 -20.0489 -30.1908 -55.8598 27.0269 -140.8018 30.9127 -3.8669 -96.0778 0.0488 0.1511 -0.1067 -2.9435 6.7932 48.5755 -124.2342 -8.8786 111.0597 16.9387 -12.9710 55.1524 0.0059 -0.0064 0.0028 -59.9453 16.1499 99.2624 -3.3649 42.7834 -5.6131 -3.7011 -20.4060 -1.8844 4.3112 -10.1406 5.3450 -35.8048 -15.1316 71.0069 1.6898 43.7108 2.9451 -20.8131 3.9484 2.9851 2.6027 -21.2762 -6.9593 
